<svg xmlns="http://www.w3.org/2000/svg" width="97" height="22" viewBox="0 0 97 22" fill="none"><path fill="#A6ABAD" d="M94.188 0l-5.26 11.255-1.98-4.264h-2.139l3.254 6.976h1.729L96.314 0h-2.126zM71.62 20.899h4.235v-7.753c0-1.773 1.026-3.019 2.55-3.019 1.466 0 2.228 1.026 2.228 2.506v8.266h4.235v-9.072c0-3.078-1.847-5.247-4.836-5.247-1.905 0-3.239.821-4.236 2.316h-.087V6.991h-4.104l.015 13.908zm-8.324-14.29c-4.426 0-7.387 3.181-7.387 7.372 0 4.162 2.96 7.372 7.387 7.372 4.425 0 7.386-3.21 7.386-7.372.014-4.191-2.96-7.371-7.386-7.371v-.001zm-.03 11.608c-2.008 0-3.077-1.686-3.077-4.236 0-2.579 1.055-4.235 3.077-4.235 2.008 0 3.122 1.656 3.122 4.235.014 2.55-1.1 4.236-3.122 4.236zm-19.432 2.682h11.9v-3.342h-6.742v-.088l6.448-7.225V6.976H43.834v3.356h6.521v.088l-6.521 7.284v3.195zm-5.438 0h4.266V6.991h-4.265v13.908h-.001zm-9.892 0h4.25v-6.39c0-2.902 1.744-4.191 4.397-3.825h.088V7.02c-.22-.088-.47-.102-.865-.102-1.656 0-2.77.762-3.722 2.388h-.088V6.992h-4.06V20.9v-.001zm-7.796-2.668c-1.876 0-3.02-1.216-3.24-3.092h10.025c.03-2.99-.762-5.378-2.418-6.873C23.903 7.181 22.364 6.58 20.4 6.58c-4.191 0-7.093 3.18-7.093 7.343 0 4.191 2.77 7.386 7.371 7.386 1.744 0 3.122-.469 4.265-1.246 1.216-.835 2.096-2.066 2.33-3.282h-4.074c-.396.908-1.246 1.45-2.491 1.45zm-.22-8.617c1.495 0 2.52 1.114 2.696 2.74h-5.686c.337-1.64 1.231-2.74 2.99-2.74zM4.836 20.899h4.455l4.836-13.908H9.863l-2.711 8.94h-.06l-2.71-8.94H0l4.836 13.908zm33.56-18.862h4.266v3.781h-4.265v-3.78l-.001-.001z"/></svg>