<svg xmlns="http://www.w3.org/2000/svg" width="201" height="24" viewBox="0 0 201 24" fill="none"><path fill="#A6ABAD" d="M24.014 0h-24v24h24V0z"/><path fill="#FAFBFC" fill-rule="evenodd" d="M5.34 19l-.627.629-.41-.41.628-.628-1.612-1.612c-.26-.26-.3-.314-.628-.137-.123.069-.246.069-.342-.04-.204-.205.014-.451.041-.479l2.008-2.008c.028-.027.274-.246.478-.04.096.095.096.232.041.34-.163.329-.122.356.137.63L8.77 18.96c.26.26.301.314.629.136.123-.068.246-.068.341.041.205.205-.013.451-.04.478L7.69 21.61c-.027.027-.273.245-.478.04-.095-.095-.095-.232-.04-.34.163-.329.122-.356-.137-.63L5.34 19zm-.026 5h-.82v-.014c.164-.327.123-.355-.137-.628L.642 19.656c-.26-.26-.3-.314-.628-.136H0v-.82l1.707-1.707c.028-.028.274-.246.479-.041.095.095.095.232.04.341-.163.328-.122.355.137.628l3.716 3.716c.26.26.3.314.628.137.123-.069.246-.069.341.04.205.205-.013.451-.04.479L5.313 24zm10.19-20.79l1.871-1.871 5.3 5.3-1.871 1.871c-.028.027-.273.246-.478.04-.096-.095-.096-.231-.041-.34.164-.328.123-.356-.137-.629l-3.715-3.715c-.26-.26-.3-.314-.629-.137-.123.068-.246.068-.341-.04-.205-.206.013-.452.04-.479zM18.714 0h1.106l.888.888c.041.04.164.177-.055.382-.123.123-.232.082-.368.014-.752-.396-1.462-.382-2.186.15l-.41-.41L18.714 0zm5.3 4.098V5.3l-1.025 1.024-.41-.41c.506-.641.547-1.475.178-2.226-.055-.15-.123-.314 0-.437.232-.232.423.014.45.041l.807.806zm-3.948-.71c.219-.37.082-.779-.123-1.12-.082-.15-.15-.315-.014-.465.219-.218.438.068.492.123l1.53 1.53c.055.055.342.273.123.492-.15.15-.3.082-.464-.014-.328-.205-.738-.342-1.12-.123l-.424-.423zm.096 7.103l.97-.97 2.54 2.54c.15.15.164.178.355.083v.464l-.956.956c-.014.014-.15.137-.273.028-.055-.055-.055-.123-.014-.192.096-.177.069-.205-.082-.355l-2.54-2.554zm2.65-.806a.166.166 0 01-.014.246c-.11.109-.232.027-.328-.055-.246-.178-.56-.382-.915-.328l-.232-.232.573-.574.916.943zm-3.402 1.557l.574-.574.232.233c-.054.355.15.669.328.915.082.095.164.218.041.328a.166.166 0 01-.246.013l-.929-.915zm2.705 11.597c0-.383.314-.67.683-.67a.676.676 0 110 1.352c-.369-.013-.683-.3-.683-.682zm.683.56c.3 0 .546-.246.546-.56a.551.551 0 00-.546-.56.543.543 0 00-.546.56c0 .314.246.56.546.56zm-.137-.178h-.123v-.778h.301c.177 0 .273.068.273.218 0 .137-.082.205-.205.219l.219.341h-.137l-.205-.341h-.136l.013.341zm.137-.437c.096 0 .191-.013.191-.123 0-.095-.082-.109-.164-.109h-.164v.246h.137v-.014zM7.24 12.09c-.219.45-.028.696.15.874l3.674 3.675c.178.177.424.355.874.15l.41.41c-1.639 1.366-3.551.846-4.958-.56-1.407-1.407-1.926-3.32-.56-4.959l.41.41zm5.013 4.37c.218-.45.027-.696-.15-.873L8.427 11.91c-.178-.177-.424-.355-.874-.15l-.41-.41c1.64-1.366 3.551-.847 4.958.56s1.926 3.32.56 4.959l-.41-.41z" clip-rule="evenodd"/><path fill="#fff" fill-rule="evenodd" d="M20.066 8.81c-.096-.095-.232-.095-.342-.04-.327.164-.355.123-.628-.137l-3.715-3.715c-.26-.26-.314-.3-.137-.629.069-.123.069-.246-.04-.341-.206-.205-.452.013-.479.04L12.854 5.86l1.53 2.828-.014.013-2.937-1.42-1.79 1.79c-.081.081-.3.3-.081.518.164.164.382 0 .464-.082.123-.11.246-.054.41-.013.15.04.287.109.437.177l5.86 2.91.205-.205-2.869-5.3 3.292 3.292c.26.26.315.3.137.628-.068.123-.068.246.041.342.205.204.45-.014.478-.041l2.008-2.008c.027-.028.246-.274.041-.478zm-5.532 3.743l-1.23-1.215-1.57-.779-.014.014 2.39 2.39c.779.997.041 1.175.356 1.475.218.219.491-.082.573-.164l.806-.805c.082-.082.383-.356.164-.574-.3-.3-.478.423-1.475-.342zm-1.052 10.573l-.874.874h-.465l.041-.082c.055-.096-.068-.205-.123-.26l-2.09-2.09c-.054-.054-.163-.177-.26-.122-.108.054-.19.109-.3.013-.109-.109-.013-.218.069-.3l1.024-1.025 2.978 2.992zm-2.8-3.156c.67-.683 1.707-.778 2.787.205.983.888.86 2.118.204 2.787l-.232-.232c.205-.273 0-.52-.15-.67l-1.708-1.707c-.15-.15-.396-.369-.669-.15l-.232-.233zm1.489-1.488l1.052-1.052 2.977 2.978-1.052 1.051c-.013.014-.15.137-.273.028-.054-.055-.054-.123-.013-.192.095-.177.068-.205-.082-.355l-2.09-2.09c-.15-.15-.164-.177-.355-.082-.069.041-.137.041-.192-.013-.123-.11.014-.26.028-.273zm1.23-1.23l.887-.888.806.806c.014.014.096.096-.027.219-.069.068-.123.054-.205.013-.424-.218-.82-.205-1.23.082l-.232-.232zm2.745 2.746c.287-.37.314-.834.095-1.257-.027-.082-.068-.177 0-.246.123-.123.233 0 .246.014l.792.792-.915.915-.218-.218zm-1.42-1.407c.122-.205.04-.437-.07-.629-.054-.082-.081-.177 0-.26.124-.122.247.042.274.07l.86.86c.028.027.192.15.069.273-.082.082-.178.04-.26 0-.191-.11-.423-.191-.628-.068l-.246-.246zm1.092-3.757c.382-.382.642-.56.942-.642.465-.122.847.028 1.189.356.328.327.478.71.369 1.188-.082.3-.26.56-.642.943l-.233-.233c.192-.273.041-.45-.15-.655l-.6-.601c-.178-.178-.383-.3-.63-.123l-.245-.233zm-.697 1.599c-.15-.15-.164-.178-.355-.082-.068.04-.137.04-.191-.014-.11-.11.014-.26.027-.273l1.052-1.052 2.54 2.54c.15.151.165.178.356.083.068-.041.136-.041.191.013.11.11-.014.26-.027.274l-1.134 1.133a.174.174 0 01-.246 0c-.055-.054-.068-.123-.027-.191.095-.177.04-.177-.096-.328l-2.09-2.103z" clip-rule="evenodd"/><path fill="#fff" fill-rule="evenodd" d="M18.345 12.649c-.123.26-.014.396.082.492l2.063 2.062c.095.096.232.205.491.082l.232.232c-.915.765-1.994.479-2.786-.314-.792-.792-1.08-1.871-.314-2.786l.232.232zm2.828 2.459c.122-.26.013-.396-.082-.492l-2.063-2.063c-.096-.095-.232-.205-.492-.082l-.232-.232c.915-.765 1.994-.478 2.787.314.792.793 1.079 1.872.314 2.787l-.233-.232zM2.895 9.084l.915-.916 2.377 2.377c.136.137.164.164.328.069.068-.028.136-.028.177.013.11.11-.013.246-.027.26l-1.052 1.079c-.014.014-.15.136-.26.027a.129.129 0 01-.013-.177c.095-.178.068-.192-.068-.328L2.896 9.084zm2.486-.752a.164.164 0 01-.014.233c-.11.109-.218.027-.314-.041-.232-.164-.533-.356-.86-.3l-.22-.22.534-.532.874.86zM2.185 9.794l.533-.533.219.219c-.055.328.136.628.3.86.069.096.15.205.041.315a.164.164 0 01-.232.013l-.86-.874zm5.956-1.189c.137.137.164.164.328.069.068-.028.137-.028.178.013.109.11-.014.246-.028.26l-1.065 1.065c-.014.014-.15.137-.26.028a.129.129 0 01-.013-.178c.095-.177.068-.191-.069-.328L5.26 7.567c-.137-.136-.164-.164-.328-.068-.068.027-.136.027-.177-.014-.11-.109.013-.245.027-.26L5.846 6.16c.014-.013.15-.136.26-.027a.129.129 0 01.014.178c-.096.177-.069.19.068.327L8.14 8.605zm-.396-1.393l-.328.328-.218-.219.327-.327-.846-.847c-.137-.137-.164-.164-.328-.069-.069.028-.137.028-.178-.013-.11-.11.014-.246.027-.26L7.267 4.74c.014-.014.15-.137.26-.028a.129.129 0 01.013.178c-.096.178-.068.191.068.328l1.967 1.967c.137.136.164.164.328.068.069-.027.137-.027.178.014.11.11-.014.246-.027.26L8.987 8.604c-.014.014-.15.137-.26.028a.129.129 0 01-.013-.178c.095-.177.068-.191-.068-.328l-.902-.915zm-.15-2.827l.983-.984 2.8 2.8-.983.984c-.014.014-.15.137-.26.027a.129.129 0 01-.013-.177c.095-.178.068-.192-.068-.328L8.085 4.74c-.136-.137-.163-.164-.327-.068-.069.027-.137.027-.178-.014-.123-.123 0-.26.014-.273zm1.16-1.161l.834-.834.765.765c.014.014.082.096-.027.205-.069.069-.123.041-.192.014-.396-.205-.778-.205-1.16.082l-.22-.232zm2.582 2.581c.26-.341.287-.778.096-1.174-.027-.082-.068-.164 0-.233.123-.123.219 0 .232.014l.752.751-.861.86-.218-.218zM10 4.48c.11-.205.04-.41-.068-.587-.041-.082-.082-.164 0-.246.123-.123.232.041.26.068l.805.806c.027.028.177.15.068.26-.082.082-.164.04-.246 0-.177-.11-.396-.178-.587-.068l-.232-.233z" clip-rule="evenodd"/><path fill="#A6ABAD" fill-rule="evenodd" d="M198.26 18.382c0-.499.407-.866.88-.866a.87.87 0 01.88.866c0 .513-.408.88-.88.88a.864.864 0 01-.88-.88zm.88.736c.394 0 .709-.315.709-.736a.709.709 0 10-1.418 0c0 .42.315.736.709.736zm-.184-.223h-.158v-1.012h.381c.237 0 .355.092.355.29 0 .183-.118.262-.263.275l.289.447h-.171l-.262-.434h-.171v.434zm.184-.565c.131 0 .249-.013.249-.158 0-.118-.118-.144-.223-.144h-.21v.315h.184v-.013z" clip-rule="evenodd"/><path fill="#A6ABAD" d="M89.648 5.802c.328-.078.552-.275.486-.67-.066-.367-.328-.472-.657-.472-1.864 0-3.729 0-5.594.013-.302 0-.564.092-.617.447-.04.34.105.604.433.682.526.119.618.473.618.92a214.94 214.94 0 000 4.11c0 .315-.105.407-.407.394-.434-.026-.867 0-1.314 0v1.169h1.668c.013.13.04.236.053.34v4.374c0 .407-.04.8-.565.919-.342.079-.538.302-.473.683.066.368.342.46.657.46 1.825.013 3.637.013 5.463 0 .341 0 .656-.08.722-.5.065-.42-.197-.59-.539-.682-.394-.105-.525-.368-.525-.749V6.63c.013-.42.158-.71.591-.828z"/><path fill="#A6ABAD" d="M82.242 17.988c-.355-.092-.512-.302-.512-.656V6.577c0-.026.013-.052.013-.092.013-.354.157-.578.512-.67.354-.091.565-.302.499-.709-.066-.38-.355-.433-.67-.433H76.53c-.288 0-.577.052-.63.42-.066.368.105.617.447.71.472.117.617.42.617.88-.013 3.479-.013 6.959 0 10.439 0 .486-.158.8-.67.945-.394.105-.565.512-.354.788.13.17.42.29.643.29 1.838.025 3.664.012 5.502.012.302 0 .604-.065.657-.446.065-.394-.145-.63-.5-.722zM138.984 4.49c-.21 0-.434 0-.631.079-.42.17-.564.735-.105.959.184.092.407.13.565.262.223.197.249.539.236.84v10.4c0 .303-.013.631-.236.828-.184.17-.46.197-.644.355-.262.236-.196.709.106.88.157.078.341.092.512.092 1.694.039 3.388.026 5.082-.014V4.476c-1.629.013-3.257.013-4.885.013zm-20.354 13.5c-.683-.224-.67-.329-.67-1.064V6.616c0-.722-.026-.84.67-1.063.249-.08.433-.263.433-.539 0-.564-.643-.604-.722-.604h-5.187l-1.812 6.04h-.04l-2.101-6.04h-4.99c-.236 0-.827 0-.827.604 0 .473.525.512.761.526.329.026.407.262.591.551.158.25.25.552.355.854l4.11 12.173h.565l3.388-11.333v9.14c0 .735.013.853-.67 1.063-.263.08-.433.263-.433.539 0 .564.643.604.722.604h5.555c.078 0 .722-.04.722-.604.013-.29-.158-.46-.42-.539zm-12.449-1.97V12.63l-1.103-3.244h-.04v6.632c-.315 2.455-1.575 1.694-1.575 2.534 0 .604.801.565 1.024.565h2.232c.21 0 1.024.04 1.024-.565.014-.84-1.247-.079-1.562-2.534zm-10.532 1.05V6.945c0-.486.079-1.077.998-1.405V4.41c-4.136.368-6.067 3.717-6.067 7.604s1.93 7.235 6.067 7.603v-1.13c-.919-.341-.998-.932-.998-1.418zm1.878-12.672v1.13c.92.328.998.919.998 1.405v10.124c0 .486-.079 1.077-.998 1.405v1.13c4.137-.368 6.067-3.717 6.067-7.604 0-3.874-1.93-7.222-6.067-7.59zm78.698 4.61V8.94c0-1.642-.565-2.929-2.009-3.795-.919-.526-2.009-.723-3.874-.71v1.13c1.037.157 1.208.959 1.208 1.838l-.013 2.955c0 .959-.066 1.76-1.221 1.983v1.13c1.864 0 2.954-.21 3.874-.736.814-.486 1.339-1.103 1.667-1.839-.026.342-.052.683-.052 1.038-.013 3.952 1.943 7.34 6.132 7.695v-1.156c-.932-.328-1.011-.932-1.011-1.431l.026-10.282c0-.5.079-1.09 1.012-1.431V4.174c-3.073.328-4.951 2.259-5.739 4.832zm-46.289-.46c.092.289.197.485.525.485.591 0 .604-.367.604-.472V4.594h-4.359v1.13c1.72.288 2.718 1.247 3.23 2.823zm-1.852 5.515c.092.328.211.644.631.644.604 0 .512-.71.512-.854V9.637c0-.158.092-.854-.512-.854-.407 0-.526.315-.631.644-.17.735-.551 1.51-1.365 1.72v1.208c.814.197 1.182.959 1.365 1.707zm2.561.591c-.354 0-.473.315-.604.604-.525 1.563-1.733 2.64-3.322 2.836v1.13h4.491v-3.9c0-.092.052-.67-.565-.67zm-9.967-10.046c-.079 0-.722.04-.722.604 0 .276.171.447.433.525.683.21.67.329.67 1.051v10.23c0 .722.026.84-.67 1.05-.249.079-.433.25-.433.525 0 .565.643.604.722.604h5.161V4.594l-5.161.013zm41.47 10.046c-.355 0-.473.315-.604.604-.525 1.563-1.734 2.64-3.322 2.836v1.13h4.491v-3.9c0-.092.065-.67-.565-.67zm-.696-6.106c.092.289.197.486.525.486.591 0 .604-.368.604-.473V4.607h-4.359v1.13c1.72.275 2.718 1.234 3.23 2.81zm-1.865 5.515c.092.328.21.644.631.644.604 0 .512-.71.512-.854V9.637c0-.158.092-.854-.512-.854-.408 0-.526.315-.631.644-.17.735-.551 1.51-1.365 1.72v1.208c.827.197 1.195.959 1.365 1.707zm-7.393-9.455c-.079 0-.722.04-.722.604 0 .276.171.447.433.525.683.21.67.329.67 1.051v10.23c0 .722.026.84-.67 1.05-.249.079-.433.25-.433.525 0 .565.643.604.722.604h5.161V4.594l-5.161.013zm-83.451 3.94c.091.289.197.485.525.485.59 0 .604-.367.604-.472V4.594h-4.36v1.13c1.734.288 2.718 1.247 3.23 2.823zm.709 6.106c-.355 0-.473.315-.604.604-.526 1.563-1.734 2.64-3.323 2.836v1.13h4.491v-3.9c0-.092.053-.67-.564-.67zM59.485 4.607c-.08 0-.723.04-.723.604 0 .276.171.447.434.525.683.21.67.329.67 1.051v10.23c0 .722.026.84-.67 1.05-.25.079-.434.25-.434.525 0 .565.644.604.723.604h5.16V4.594l-5.16.013zm7.406 9.455c.092.328.21.644.63.644.604 0 .512-.71.512-.854V9.637c0-.158.092-.854-.512-.854-.407 0-.525.315-.63.644-.17.735-.552 1.51-1.366 1.72v1.208c.814.197 1.182.959 1.366 1.707zM50.135 18.12c-.696-.223-.67-.342-.67-1.064l-.013-10.36c0-.736-.026-.854.67-1.064.262-.08.433-.263.433-.539 0-.578-.656-.617-.735-.617h-5.594c-.08 0-.736.04-.736.617 0 .276.184.46.434.539.696.223.67.341.67 1.063l.013 10.361c0 .736.026.854-.67 1.064-.263.079-.434.263-.434.538 0 .578.657.617.736.617h5.594c.079 0 .735-.039.735-.617 0-.289-.17-.46-.433-.538z"/><path fill="#A6ABAD" d="M57.607 18.12c-.696-.223-.67-.342-.67-1.064l-.013-10.36c0-.736-.026-.854.67-1.064.262-.08.433-.263.433-.539 0-.578-.656-.617-.735-.617h-5.594c-.08 0-.736.04-.736.617 0 .276.184.46.434.539.696.223.67.341.67 1.063v4.491h-1.747v1.143h1.746v4.727c0 .736.027.854-.67 1.064-.262.079-.433.263-.433.538 0 .578.657.617.736.617h5.594c.078 0 .735-.039.735-.617.013-.276-.158-.46-.42-.538zM39.905 4.542v1.155c1.05.736 1.34 2.049 1.524 3.1.065.433.17.958.722.958.59 0 .656-.5.656-.578l-.039-4.622-2.863-.013zm-6.644-.04l-2.863-.013.026 4.622c0 .08.066.578.657.578.551 0 .656-.512.709-.945.17-1.05.446-2.364 1.47-3.086V4.502zm6.513 13.749c-.696-.223-.683-.342-.683-1.077l-.079-12.632-4.871-.027.065 12.633c0 .735.027.854-.67 1.064-.262.078-.433.25-.433.538 0 .578.657.617.736.617l5.62.026c.079 0 .735-.039.735-.617.013-.262-.17-.446-.42-.525zM200.308 4.594l-2.823-.026.013 1.142c1.025.736 1.313 2.036 1.497 3.073.066.434.171.946.709.946.591 0 .644-.486.644-.565l-.04-4.57zM197.38 18.12c-.683-.224-.67-.342-.683-1.064l-.105-12.501-4.819-.04.105 12.502c0 .722.026.84-.657 1.05-.249.079-.433.25-.433.525 0 .565.657.618.735.618l5.568.052c.079 0 .722-.04.722-.604 0-.276-.183-.446-.433-.538zm-6.487-13.605l-2.836-.026.026 3.152c-.959-1.878-2.679-3.204-5.2-3.428V5.37c.932.328 1.011.932 1.011 1.418l-.04 10.282c0 .5-.078 1.09-1.011 1.432v1.155c4.202-.394 6.172-3.782 6.185-7.734 0-.788-.078-1.55-.223-2.272.512-.013.604-.512.67-.932.171-1.038.433-2.338 1.444-3.06l-.026-1.143zm-46.118.158v1.116c1.182.158 1.234 1.26 1.247 1.996l.04 8.22c0 .736-.04 1.839-1.222 1.983v1.117c3.205.013 6.448-2.653 6.212-7.183-.237-4.99-2.994-7.275-6.277-7.249zm25.318 13.276c-.683-.21-.67-.328-.657-1.05l.039-12.45-5.16.014c-.079 0-.723.04-.723.604 0 .276.171.446.434.525.683.21.669.328.656 1.05l-.026 10.257c0 .722.118.84-.565 1.063-.249.079-.38.263-.38.539 0 .564.485.604.564.604l5.542-.013c.079 0 .722-.04.722-.605-.013-.275-.197-.46-.446-.538z"/></svg>