<svg xmlns="http://www.w3.org/2000/svg" width="208" height="21" viewBox="0 0 208 21" fill="none"><path fill="#A6ABAD" d="M188.731 20.741C194.798 15.563 203.32 10.53 208 8.716c-.722-.46-1.849-1.121-3.12-1.84-6.038 1.984-13.087 6.386-19.384 11.362 1.068.806 2.195 1.64 3.235 2.503zm-2.773-14.067c-.896-.432-1.878-.834-2.629-1.18-2.282 1.122-5.258 2.82-9.013 5.495.808.431 1.675.95 2.6 1.467 2.888-2.129 5.806-4.142 9.042-5.782zM191.36 4.2c-1.098-.604-4.911-2.014-7.54-2.618-.78.288-1.878.72-2.629 1.036.953.259 4.507 1.208 7.54 2.733.78-.374 1.878-.834 2.629-1.15zm-12.913-.374c-3.38 1.553-6.934 3.682-8.869 4.92.693.316 1.386.575 2.34 1.035 4.275-2.877 7.626-4.632 8.955-5.207-.953-.345-1.849-.575-2.426-.748zm15.455-.518c.78-.259 1.676-.489 2.456-.719-2.254-.95-5.085-1.956-7.627-2.589-.404.115-1.618.432-2.455.69.866.26 3.726.921 7.626 2.618zM179.66 14.125c.924.546 1.907 1.294 2.86 1.927 6.327-4.89 12.567-8.659 19.413-10.788-.953-.489-1.791-.92-2.86-1.438-4.102 1.036-11.122 3.826-19.413 10.299zM0 19.245h4.622c2.34 0 3.438-1.208 3.438-2.905 0-1.381-.722-2.302-2.224-2.59 1.328-.316 1.935-1.121 1.935-2.3 0-1.497-1.098-2.705-3.438-2.705H.03v10.5H0zm4.016-4.459c.866 0 1.473.432 1.473 1.295 0 .92-.578 1.294-1.473 1.294H2.513v-2.618h1.503v.03zm-.29-4.2c.867 0 1.474.374 1.474 1.237 0 .863-.578 1.237-1.473 1.237H2.513v-2.474h1.214zm13.665-1.87h-2.6l-3.958 10.53h2.63l.721-2.187h3.814l.722 2.186h2.658L17.39 8.716zm-1.3 2.532l1.242 3.884h-2.542l1.3-3.884zm18.46-2.532h-2.398v7.048l-4.506-7.048H24.96v10.53h2.398v-7.02l4.506 7.02h2.687V8.715zm11.065 10.53l-3.467-5.351v5.35h-2.571V8.716h2.57v5.063l3.294-5.063h2.86l-3.466 5.063 3.784 5.466h-3.004zM57.72 13.98c0 2.1 1.271 3.394 2.918 3.394 1.646 0 2.918-1.294 2.918-3.394s-1.272-3.395-2.918-3.395c-1.647 0-2.918 1.295-2.918 3.395zm-2.716 0c.03-3.078 2.196-5.495 5.634-5.495s5.604 2.417 5.633 5.495c-.029 3.078-2.195 5.494-5.633 5.494s-5.605-2.416-5.634-5.494zm14.792 5.264h2.57v-4.142h3.352v-2.014h-3.351V10.73h4.044l.462-2.014h-7.077v10.53zM88.862 8.716h-2.6l-3.958 10.53h2.63l.722-2.187h3.813l.722 2.186h2.658L88.862 8.716zm-1.3 2.532l1.242 3.884h-2.542l1.3-3.884zm20.54-2.532h-3.004l-2.745 5.696-2.744-5.696h-3.005v10.53h2.311v-7.049l3.409 7.048 3.409-7.048v7.048h2.398l-.029-10.529zm4.998 10.53h7.222v-2.014h-4.651v-2.36h3.669v-1.956h-3.669V10.73h4.247l.462-2.014h-7.28v10.53zm17.016 0h2.802l-2.629-4.46c1.444-.402 2.138-1.41 2.138-2.876 0-1.9-1.156-3.165-3.756-3.165h-4.073v10.529h2.513v-4.143h.693l2.312 4.114zm-1.936-8.573c1.069 0 1.618.46 1.618 1.352 0 .891-.549 1.352-1.618 1.352h-1.098v-2.704h1.098zm8.58 8.572h2.571v-10.5h-2.571v10.5zm15.224-2.819c-.982.69-1.848.92-2.744.92-1.964 0-3.351-1.351-3.351-3.365s1.358-3.366 3.264-3.366c.867 0 1.734.23 2.687.92V9.149c-.867-.49-1.878-.69-3.004-.69-3.496 0-5.692 2.416-5.72 5.494.028 3.107 2.166 5.495 5.72 5.495 1.184 0 2.195-.202 3.12-.69v-2.331h.028zm9.418-7.71h-2.6l-3.958 10.53h2.629l.723-2.187h3.813l.722 2.186h2.658l-3.987-10.529zm-1.3 2.532l1.242 3.884h-2.542l1.3-3.884z"/></svg>