<svg xmlns="http://www.w3.org/2000/svg" width="94" height="26" viewBox="0 0 94 25" fill="none"><path fill="#A6ABAD" d="M12.889 23.832c-1.41.248-2.845.323-4.33.522L4.032 11.021v13.905c-1.41.15-2.697.348-4.032.547V.001h3.76l5.146 14.453V.001h3.983v23.831zm7.793-14.504c1.534 0 3.884-.074 5.294-.074v3.98c-1.757 0-3.81 0-5.294.074v5.92c2.325-.149 4.65-.348 7-.422v3.83l-10.959.871V.001h10.96v3.98h-7.001v5.348-.001zm21.72-5.348h-4.105v18.308c-1.336 0-2.672 0-3.958.05V3.981h-4.107V.001h12.172v3.98l-.002-.001zm6.433 5.075h5.418v3.98h-5.418v9.03h-3.884V0h11.058v3.98h-7.174v5.075zm13.607 9.527c2.25.05 4.527.224 6.729.348v3.93c-3.538-.224-7.076-.447-10.688-.522V.001h3.959v18.582-.001zm10.068 4.552c1.262.075 2.598.15 3.884.299V.001h-3.883v23.134l-.001-.001zM93.737.001l-5.022 12.114 5.022 13.358c-1.485-.199-2.969-.472-4.453-.721l-2.845-7.363-2.894 6.766c-1.436-.249-2.821-.323-4.256-.523l5.097-11.666L79.784.001h4.255l2.598 6.692 2.77-6.692h4.33z"/></svg>